<?xml version="1.0" encoding="UTF-8" standalone="no"?>
<svg xmlns="http://www.w3.org/2000/svg" version="1.1" viewBox="0.00 0.00 2364.00 1330.00">
  <g stroke-width="2.00" fill="none" stroke-linecap="butt">
    <path stroke="#71000b" vector-effect="non-scaling-stroke" d="   M 1078.91 1112.30   L 1078.93 1111.54"></path>
    <path stroke="#71000b" vector-effect="non-scaling-stroke" d="   M 1078.92 1111.22   L 1078.90 1109.96"></path>
  </g>
  <path fill="#000000" d="   M 1668.88 508.91   A 486.88 486.88 0.0 0 1 1182.00 995.79   A 486.88 486.88 0.0 0 1 695.12 508.91   A 486.88 486.88 0.0 0 1 1182.00 22.03   A 486.88 486.88 0.0 0 1 1668.88 508.91   Z   M 1623.30 508.91   A 441.30 441.30 0.0 0 0 1182.00 67.61   A 441.30 441.30 0.0 0 0 740.70 508.91   A 441.30 441.30 0.0 0 0 1182.00 950.21   A 441.30 441.30 0.0 0 0 1623.30 508.91   Z"></path>
  <path fill="#000000" d="   M 1015.87 182.60   Q 1015.85 187.34 1015.83 203.27   Q 1015.83 207.13 1015.67 208.30   Q 1015.28 211.22 1015.36 213.33   Q 1015.37 213.67 1015.36 371.01   A 0.50 0.50 0.0 0 0 1015.86 371.51   L 1348.95 371.51   A 0.72 0.71 90.0 0 0 1349.66 370.79   L 1349.66 183.29   A 0.49 0.49 0.0 0 1 1350.40 182.87   Q 1377.39 199.31 1403.52 219.45   C 1483.69 281.22 1534.93 371.68 1544.81 472.63   Q 1552.58 552.05 1527.14 626.93   C 1502.21 700.29 1453.60 763.96 1389.67 808.40   Q 1368.97 822.78 1360.83 827.82   Q 1353.98 832.06 1350.53 834.27   A 0.59 0.59 0.0 0 1 1349.62 833.77   L 1349.62 646.94   A 0.60 0.59 -90.0 0 0 1349.03 646.34   L 1015.86 646.34   A 0.49 0.49 0.0 0 0 1015.37 646.83   Q 1015.36 711.84 1015.36 805.99   C 1015.36 807.40 1015.89 809.36 1015.87 811.00   Q 1015.79 818.75 1015.86 834.49   A 0.61 0.61 0.0 0 1 1014.92 835.01   Q 1001.87 826.97 984.25 815.07   Q 983.59 814.62 980.77 812.74   C 911.69 766.71 859.08 697.33 834.09 617.93   C 818.25 567.56 813.62 514.38 820.43 461.96   Q 832.41 369.72 888.39 293.38   Q 918.90 251.76 958.60 221.10   Q 981.16 203.68 1003.85 189.13   Q 1012.59 183.53 1015.28 182.23   A 0.41 0.41 0.0 0 1 1015.87 182.60   Z   M 861.87 508.90   Q 861.87 565.40 880.74 617.52   Q 908.19 693.30 968.34 746.74   A 0.32 0.32 0.0 0 0 968.86 746.51   Q 968.88 726.02 968.89 508.90   Q 968.89 291.78 968.87 271.29   A 0.32 0.32 0.0 0 0 968.35 271.06   Q 908.20 324.50 880.75 400.28   Q 861.87 452.40 861.87 508.90   Z   M 1395.11 508.38   Q 1395.11 725.03 1395.18 745.51   A 0.25 0.25 0.0 0 0 1395.59 745.69   Q 1434.37 711.13 1460.22 665.01   C 1486.99 617.26 1501.11 563.70 1501.11 508.38   C 1501.11 453.06 1486.99 399.50 1460.23 351.75   Q 1434.38 305.62 1395.60 271.06   A 0.25 0.25 0.0 0 0 1395.19 271.24   Q 1395.12 291.72 1395.11 508.38   Z   M 1349.66 417.68   A 0.61 0.61 0.0 0 0 1349.05 417.07   L 1015.97 417.07   A 0.61 0.61 0.0 0 0 1015.36 417.68   L 1015.36 599.20   A 0.61 0.61 0.0 0 0 1015.97 599.81   L 1349.05 599.81   A 0.61 0.61 0.0 0 0 1349.66 599.20   L 1349.66 417.68   Z"></path>
  <path fill="#e20015" d="   M 1078.91 1112.30   L 1078.93 1111.54   Q 1078.93 1111.38 1078.92 1111.22   L 1078.90 1109.96   C 1076.87 1059.25 1112.17 1025.69 1159.70 1017.18   Q 1189.33 1011.88 1219.24 1018.06   Q 1263.05 1027.11 1292.76 1060.42   A 0.31 0.30 47.8 0 1 1292.74 1060.84   L 1248.16 1105.42   A 0.60 0.59 -44.0 0 1 1247.30 1105.41   C 1229.96 1086.92 1202.98 1074.83 1177.50 1079.73   C 1168.88 1081.39 1159.70 1086.15 1155.53 1093.94   C 1151.94 1100.65 1151.36 1109.64 1155.58 1116.27   C 1158.94 1121.56 1164.63 1125.13 1170.44 1127.53   Q 1179.28 1131.17 1188.53 1133.19   Q 1214.87 1138.96 1225.90 1141.62   C 1241.57 1145.39 1258.05 1151.49 1270.52 1160.86   Q 1294.72 1179.04 1298.26 1211.51   C 1299.89 1226.49 1299.04 1241.54 1294.09 1255.63   C 1280.70 1293.77 1243.66 1313.74 1205.54 1319.22   Q 1188.30 1321.69 1164.30 1319.43   C 1139.66 1317.11 1115.85 1309.47 1095.71 1295.03   Q 1078.86 1282.95 1065.79 1266.70   A 1.11 1.10 -42.2 0 1 1065.87 1265.22   L 1110.79 1220.30   A 0.63 0.62 48.4 0 1 1111.73 1220.36   C 1130.74 1244.95 1158.34 1258.99 1189.75 1257.42   C 1207.37 1256.53 1226.03 1247.04 1224.54 1226.39   C 1223.78 1215.94 1216.95 1209.92 1207.79 1206.23   Q 1199.11 1202.75 1190.78 1200.72   Q 1187.00 1199.80 1159.35 1193.66   Q 1136.75 1188.65 1118.23 1177.47   Q 1081.50 1155.28 1078.91 1112.30   Z"></path>
  <path fill="#e20015" d="   M 917.78 1015.78   C 960.66 1015.78 996.91 1033.23 1021.45 1066.45   C 1043.00 1095.61 1051.79 1132.79 1051.79 1168.60   C 1051.79 1204.41 1043.01 1241.60 1021.47 1270.76   C 996.93 1303.98 960.68 1321.44 917.80 1321.44   C 874.92 1321.44 838.67 1303.99 814.13 1270.77   C 792.58 1241.61 783.80 1204.43 783.79 1168.62   C 783.79 1132.81 792.57 1095.63 814.11 1066.46   C 838.66 1033.24 874.90 1015.79 917.78 1015.78   Z   M 855.78 1168.86   C 855.82 1207.20 872.01 1251.63 918.00 1251.58   C 963.99 1251.53 980.08 1207.07 980.03 1168.72   C 979.99 1130.38 963.81 1085.95 917.82 1086.00   C 871.83 1086.05 855.74 1130.52 855.78 1168.86   Z"></path>
  <path fill="#e20015" d="   M 1513.80 1218.98   A 0.50 0.49 31.7 0 1 1514.50 1218.82   L 1572.98 1258.26   A 0.42 0.42 0.0 0 1 1573.09 1258.84   C 1561.57 1275.74 1548.05 1291.83 1531.73 1302.94   C 1514.13 1314.93 1492.74 1320.47 1471.49 1321.46   Q 1465.85 1321.72 1455.36 1321.70   C 1435.60 1321.66 1415.54 1316.76 1398.82 1308.15   C 1355.45 1285.82 1330.94 1241.17 1324.95 1193.28   C 1319.26 1147.84 1327.76 1096.58 1358.37 1060.50   Q 1388.36 1025.14 1435.83 1017.91   Q 1458.38 1014.48 1482.63 1017.96   Q 1519.35 1023.23 1546.32 1048.95   Q 1560.45 1062.42 1571.13 1079.14   A 0.59 0.58 -33.8 0 1 1570.96 1079.95   L 1513.28 1118.21   A 0.68 0.67 58.3 0 1 1512.32 1117.98   C 1503.43 1102.27 1490.65 1090.15 1472.25 1087.06   Q 1438.64 1081.41 1415.75 1107.13   C 1403.58 1120.81 1397.63 1140.47 1396.50 1159.22   C 1394.58 1191.27 1403.85 1229.48 1435.46 1245.27   Q 1449.83 1252.44 1466.52 1251.52   Q 1489.37 1250.25 1504.01 1232.84   Q 1509.47 1226.35 1513.80 1218.98   Z"></path>
  <path fill="#e20015" d="   M 1723.02 1130.03   Q 1754.56 1130.03 1766.81 1130.01   A 0.46 0.46 0.0 0 0 1767.27 1129.55   L 1767.27 1023.24   A 0.61 0.60 90.0 0 1 1767.87 1022.63   L 1843.53 1022.63   A 0.34 0.33 90.0 0 1 1843.86 1022.97   L 1843.86 1313.78   A 0.78 0.77 90.0 0 1 1843.09 1314.56   L 1767.98 1314.56   A 0.71 0.71 0.0 0 1 1767.27 1313.85   L 1767.27 1199.93   A 0.63 0.62 89.5 0 0 1766.63 1199.30   Q 1760.75 1199.38 1723.02 1199.38   Q 1685.30 1199.38 1679.42 1199.30   A 0.63 0.62 -89.5 0 0 1678.78 1199.93   L 1678.78 1313.85   A 0.71 0.71 0.0 0 1 1678.07 1314.56   L 1602.96 1314.56   A 0.78 0.77 -90.0 0 1 1602.19 1313.78   L 1602.19 1022.97   A 0.34 0.33 -90.0 0 1 1602.52 1022.63   L 1678.18 1022.63   A 0.61 0.60 -90.0 0 1 1678.78 1023.24   L 1678.78 1129.55   A 0.46 0.46 0.0 0 0 1679.24 1130.01   Q 1691.49 1130.03 1723.02 1130.03   Z"></path>
  <path fill="#e20015" d="   M 707.93 1162.79   A 0.33 0.32 -47.1 0 0 707.95 1163.40   C 742.65 1174.26 761.88 1202.94 759.77 1238.59   C 758.29 1263.71 744.18 1285.76 722.96 1299.23   Q 697.91 1315.12 667.26 1315.06   Q 568.51 1314.85 520.64 1315.07   A 0.48 0.48 0.0 0 1 520.15 1314.59   L 520.15 1023.66   A 0.58 0.57 0.0 0 1 520.73 1023.09   Q 592.34 1023.14 656.52 1023.06   C 696.07 1023.01 733.18 1038.17 744.48 1078.79   Q 748.62 1093.65 747.17 1110.48   C 745.14 1134.06 729.78 1153.93 707.93 1162.79   Z   M 591.13 1084.17   L 591.13 1137.15   A 0.54 0.54 0.0 0 0 591.67 1137.69   L 645.29 1137.69   A 27.02 26.40 -0.0 0 0 672.31 1111.29   L 672.31 1110.03   A 27.02 26.40 0.0 0 0 645.29 1083.63   L 591.67 1083.63   A 0.54 0.54 0.0 0 0 591.13 1084.17   Z   M 592.03 1225.22   Q 591.98 1245.11 591.94 1253.24   A 0.65 0.64 89.9 0 0 592.58 1253.89   Q 620.61 1253.93 636.07 1253.99   Q 648.31 1254.04 651.43 1253.75   C 668.40 1252.17 682.34 1244.51 682.39 1225.47   C 682.45 1206.43 668.55 1198.69 651.59 1197.01   Q 648.47 1196.71 636.23 1196.69   Q 620.77 1196.67 592.74 1196.55   A 0.65 0.64 -89.6 0 0 592.09 1197.19   Q 592.09 1205.33 592.03 1225.22   Z"></path>
  <path fill="#000000" d="   M 1078.92 1111.22   L 1078.90 1109.96   L 1078.92 1111.22   Z"></path>
  <path fill="#000000" d="   M 1078.93 1111.54   L 1078.91 1112.30   L 1078.93 1111.54   Z"></path>
</svg>
