<?xml version="1.0" encoding="UTF-8" standalone="no"?>
<svg xmlns="http://www.w3.org/2000/svg" version="1.1" viewBox="0.00 0.00 565.00 89.00">
  <path fill="#231f20" d="   M 362.96 0.48   C 387.43 0.49 400.95 20.64 400.94 43.07   C 400.94 65.50 387.41 85.65 362.93 85.64   C 338.45 85.64 324.94 65.48 324.94 43.05   C 324.95 20.62 338.48 0.47 362.96 0.48   Z   M 336.05 43.05   C 336.06 59.32 344.53 76.20 362.96 76.19   C 381.38 76.18 389.85 59.30 389.84 43.03   C 389.83 26.77 381.35 9.89 362.93 9.89   C 344.51 9.90 336.04 26.79 336.05 43.05   Z"></path>
  <path fill="#231f20" d="   M 485.97 43.13   C 485.93 65.56 472.37 85.69 447.89 85.65   C 423.41 85.61 409.92 65.43 409.96 42.99   C 410.00 20.56 423.56 0.43 448.04 0.47   C 472.52 0.51 486.01 20.69 485.97 43.13   Z   M 421.06 43.05   C 421.06 59.31 429.53 76.19 447.95 76.19   C 466.37 76.19 474.84 59.31 474.84 43.05   C 474.84 26.79 466.37 9.91 447.95 9.91   C 429.53 9.91 421.07 26.79 421.06 43.05   Z"></path>
  <rect fill="#231f20" x="0.32" y="2.86" width="11.42" height="80.38" rx="0.38"></rect>
  <path fill="#231f20" d="   M 25.82 40.42   L 64.70 82.67   A 0.35 0.35 0.0 0 1 64.44 83.26   L 51.19 83.26   A 0.35 0.35 0.0 0 1 50.94 83.15   L 11.90 40.73   A 0.35 0.35 0.0 0 1 11.91 40.24   L 49.25 2.90   A 0.35 0.35 0.0 0 1 49.49 2.80   L 62.11 2.80   A 0.35 0.35 0.0 0 1 62.35 3.40   L 25.83 39.93   A 0.35 0.35 0.0 0 0 25.82 40.42   Z"></path>
  <path fill="#231f20" d="   M 131.80 74.30   L 131.80 82.78   A 0.44 0.44 0.0 0 1 131.36 83.22   L 73.37 83.22   A 0.44 0.44 0.0 0 1 72.93 82.78   L 72.93 3.31   A 0.44 0.44 0.0 0 1 73.37 2.87   L 129.67 2.87   A 0.44 0.44 0.0 0 1 130.11 3.31   L 130.11 11.67   A 0.44 0.44 0.0 0 1 129.67 12.11   L 84.85 12.11   A 0.44 0.44 0.0 0 0 84.41 12.55   L 84.41 36.61   A 0.44 0.44 0.0 0 0 84.85 37.05   L 126.95 37.05   A 0.44 0.44 0.0 0 1 127.39 37.49   L 127.39 46.00   A 0.44 0.44 0.0 0 1 126.95 46.44   L 84.89 46.44   A 0.44 0.44 0.0 0 0 84.45 46.88   L 84.45 73.42   A 0.44 0.44 0.0 0 0 84.89 73.86   L 131.36 73.86   A 0.44 0.44 0.0 0 1 131.80 74.30   Z"></path>
  <path fill="#231f20" d="   M 182.93 40.05   Q 191.65 52.50 201.34 67.20   A 0.27 0.27 0.0 0 0 201.84 67.05   L 201.84 3.45   A 0.61 0.61 0.0 0 1 202.45 2.84   L 212.72 2.84   A 0.63 0.63 0.0 0 1 213.35 3.47   L 213.35 82.68   A 0.56 0.55 0.0 0 1 212.79 83.23   L 200.91 83.23   A 1.56 1.56 0.0 0 1 199.63 82.55   Q 179.68 53.12 174.71 46.04   Q 165.99 33.59 156.31 18.89   A 0.27 0.27 0.0 0 0 155.81 19.03   L 155.81 82.63   A 0.61 0.61 0.0 0 1 155.20 83.24   L 144.93 83.24   A 0.63 0.63 0.0 0 1 144.30 82.61   L 144.30 3.40   A 0.56 0.55 -0.0 0 1 144.86 2.85   L 156.74 2.85   A 1.56 1.56 0.0 0 1 158.02 3.53   Q 177.96 32.96 182.93 40.05   Z"></path>
  <path fill="#231f20" d="   M 273.46 31.99   Q 273.66 31.99 273.74 32.16   Q 280.53 46.20 288.97 63.66   A 0.36 0.36 0.0 0 0 289.62 63.64   L 314.60 3.24   A 0.58 0.58 0.0 0 1 315.14 2.88   L 325.97 2.88   A 0.24 0.24 0.0 0 1 326.19 3.21   L 290.09 88.15   A 0.32 0.31 44.6 0 1 289.51 88.15   L 273.67 53.48   A 0.24 0.10 10.8 0 0 273.53 53.39   Q 273.49 53.38 273.46 53.38   Q 273.42 53.38 273.38 53.39   A 0.24 0.10 -10.8 0 0 273.24 53.48   L 257.39 88.14   A 0.32 0.31 -44.5 0 1 256.81 88.14   L 220.74 3.19   A 0.24 0.24 0.0 0 1 220.96 2.86   L 231.79 2.87   A 0.59 0.58 -71.1 0 1 232.33 3.23   L 257.29 63.63   A 0.36 0.36 0.0 0 0 257.94 63.66   Q 266.39 46.20 273.18 32.16   Q 273.26 31.99 273.46 31.99   Z"></path>
  <path fill="#ed1c24" d="   M 287.03 3.32   L 273.78 30.69   A 0.34 0.34 0.0 0 1 273.16 30.69   L 259.91 3.32   A 0.34 0.34 0.0 0 1 260.21 2.83   L 286.73 2.83   A 0.34 0.34 0.0 0 1 287.03 3.32   Z"></path>
  <path fill="#231f20" d="   M 496.51 3.21   A 0.53 0.53 0.0 0 1 497.04 2.68   L 528.51 2.74   A 36.54 36.02 -89.9 0 1 564.47 39.34   L 564.45 46.92   A 36.54 36.02 -89.9 0 1 528.37 83.40   L 496.90 83.34   A 0.53 0.53 0.0 0 1 496.37 82.81   L 496.51 3.21   Z   M 507.90 13.18   L 508.10 72.96   A 1.09 1.09 0.0 0 0 509.20 74.04   L 527.20 73.98   A 28.63 26.15 89.8 0 0 553.25 45.26   L 553.23 40.56   A 28.63 26.15 89.8 0 0 526.98 12.02   L 508.98 12.09   A 1.09 1.09 0.0 0 0 507.90 13.18   Z"></path>
</svg>
