<?xml version="1.0" encoding="UTF-8" standalone="no"?>
<svg xmlns="http://www.w3.org/2000/svg" version="1.1" viewBox="0.00 0.00 1024.00 244.00">
  <path fill="#009999" d="   M 134.62 78.56   Q 133.98 78.39 125.48 75.59   C 112.50 71.31 86.27 65.84 75.89 77.25   C 69.26 84.54 77.25 91.30 83.37 94.15   Q 99.74 101.77 118.46 111.26   C 133.61 118.95 146.14 131.77 146.30 149.86   C 146.58 181.50 117.59 195.39 90.24 196.72   Q 61.90 198.09 36.15 191.36   A 0.77 0.76 -82.6 0 1 35.58 190.62   L 35.58 161.95   A 0.41 0.41 0.0 0 1 36.13 161.56   Q 56.97 169.08 78.73 169.87   C 86.92 170.16 101.73 169.28 104.11 158.91   C 105.69 152.06 101.48 147.69 95.77 145.00   Q 93.19 143.78 64.30 131.47   C 50.56 125.62 38.22 115.14 34.27 100.99   C 26.93 74.72 43.50 54.94 68.02 48.25   Q 80.72 44.79 94.51 45.20   Q 114.69 45.80 134.68 50.45   A 0.69 0.68 7.1 0 1 135.20 51.11   L 135.20 78.12   A 0.46 0.46 0.0 0 1 134.62 78.56   Z"></path>
  <path fill="#009999" d="   M 975.81 78.11   A 0.46 0.46 0.0 0 1 975.23 78.55   Q 974.59 78.38 966.09 75.58   C 953.11 71.30 926.88 65.84 916.50 77.25   C 909.87 84.54 917.86 91.30 923.98 94.15   Q 940.36 101.77 959.08 111.25   C 974.23 118.94 986.76 131.76 986.93 149.85   C 987.21 181.49 958.22 195.39 930.87 196.72   Q 902.53 198.10 876.78 191.37   A 0.77 0.76 -82.6 0 1 876.21 190.63   L 876.21 161.96   A 0.41 0.41 0.0 0 1 876.76 161.57   Q 897.60 169.09 919.36 169.87   C 927.55 170.16 942.36 169.28 944.74 158.91   C 946.31 152.06 942.10 147.69 936.39 145.00   Q 933.81 143.78 904.92 131.47   C 891.18 125.63 878.84 115.15 874.89 101.00   C 867.54 74.73 884.11 54.95 908.63 48.25   Q 921.33 44.79 935.12 45.20   Q 955.30 45.79 975.29 50.44   A 0.69 0.68 7.1 0 1 975.81 51.10   L 975.81 78.11   Z"></path>
  <rect fill="#009999" x="165.82" y="47.79" width="43.52" height="146.52" rx="0.37"></rect>
  <path fill="#009999" d="   M 349.18 74.87   L 285.40 74.87   A 0.36 0.36 0.0 0 0 285.04 75.23   L 285.04 107.00   A 0.36 0.36 0.0 0 0 285.40 107.36   L 340.76 107.36   A 0.36 0.36 0.0 0 1 341.12 107.72   L 341.12 131.44   A 0.36 0.36 0.0 0 1 340.76 131.80   L 285.40 131.80   A 0.36 0.36 0.0 0 0 285.04 132.16   L 285.04 165.53   A 0.36 0.36 0.0 0 0 285.40 165.89   L 350.50 165.89   A 0.36 0.36 0.0 0 1 350.86 166.25   L 350.86 193.96   A 0.36 0.36 0.0 0 1 350.50 194.32   L 243.33 194.32   A 0.36 0.36 0.0 0 1 242.97 193.96   L 242.97 48.16   A 0.36 0.36 0.0 0 1 243.33 47.80   L 349.18 47.80   A 0.36 0.36 0.0 0 1 349.54 48.16   L 349.54 74.51   A 0.36 0.36 0.0 0 1 349.18 74.87   Z"></path>
  <path fill="#009999" d="   M 512.12 98.25   A 0.12 0.12 0.0 0 0 511.89 98.20   L 470.08 195.37   A 0.49 0.49 0.0 0 1 469.63 195.66   L 445.44 195.66   A 0.84 0.81 -11.0 0 1 444.67 195.16   L 404.65 98.42   A 0.17 0.17 0.0 0 0 404.33 98.49   L 404.33 193.97   A 0.37 0.36 90.0 0 1 403.97 194.34   L 375.53 194.34   A 0.61 0.60 90.0 0 1 374.93 193.73   L 374.93 48.39   A 0.58 0.58 0.0 0 1 375.51 47.81   L 427.50 47.81   A 0.87 0.86 78.9 0 1 428.30 48.35   L 464.07 136.80   A 0.30 0.30 0.0 0 0 464.63 136.81   L 502.06 48.32   A 0.84 0.84 0.0 0 1 502.83 47.81   L 552.08 47.81   A 0.67 0.67 0.0 0 1 552.75 48.48   L 552.75 194.00   A 0.34 0.34 0.0 0 1 552.41 194.34   L 512.52 194.34   A 0.40 0.40 0.0 0 1 512.12 193.94   L 512.12 98.25   Z"></path>
  <path fill="#009999" d="   M 692.25 47.81   A 0.71 0.71 0.0 0 1 692.96 48.52   L 692.95 74.27   A 0.61 0.61 0.0 0 1 692.34 74.88   L 628.76 74.87   A 0.30 0.30 0.0 0 0 628.46 75.17   L 628.46 106.96   A 0.40 0.39 -90.0 0 0 628.85 107.36   L 683.95 107.35   A 0.59 0.59 0.0 0 1 684.54 107.94   L 684.53 131.41   A 0.38 0.38 0.0 0 1 684.15 131.79   L 629.04 131.80   A 0.59 0.59 0.0 0 0 628.45 132.39   L 628.45 165.53   A 0.35 0.35 0.0 0 0 628.80 165.88   L 693.88 165.88   A 0.38 0.38 0.0 0 1 694.26 166.26   L 694.26 193.97   A 0.35 0.35 0.0 0 1 693.91 194.32   L 586.75 194.32   A 0.38 0.38 0.0 0 1 586.37 193.94   L 586.38 48.17   A 0.38 0.38 0.0 0 1 586.76 47.79   L 692.25 47.81   Z"></path>
  <path fill="#009999" d="   M 816.15 139.48   A 0.08 0.08 0.0 0 0 816.30 139.44   L 816.30 48.36   A 0.55 0.55 0.0 0 1 816.85 47.81   L 845.29 47.81   A 0.36 0.36 0.0 0 1 845.65 48.17   L 845.65 193.86   A 0.48 0.47 90.0 0 1 845.18 194.34   L 800.06 194.34   A 0.95 0.95 0.0 0 1 799.23 193.85   L 748.02 100.96   A 0.19 0.19 0.0 0 0 747.67 101.06   L 747.67 193.91   A 0.43 0.43 0.0 0 1 747.24 194.34   L 718.60 194.34   A 0.29 0.29 0.0 0 1 718.31 194.05   L 718.31 48.37   A 0.56 0.56 0.0 0 1 718.87 47.81   L 765.20 47.81   A 0.70 0.70 0.0 0 1 765.81 48.17   L 816.15 139.48   Z"></path>
</svg>
