<?xml version="1.0" encoding="UTF-8" standalone="no"?>
<svg xmlns="http://www.w3.org/2000/svg" version="1.1" viewBox="0.00 0.00 450.00 348.00">
  <g stroke-width="2.00" fill="none" stroke-linecap="butt">
    <path stroke="#239c5c" vector-effect="non-scaling-stroke" d="   M 271.83 48.40   Q 244.61 64.60 216.42 78.73"></path>
    <path stroke="#6bb05d" vector-effect="non-scaling-stroke" d="   M 279.90 67.81   Q 273.37 74.75 266.62 78.90   Q 260.04 82.94 242.70 92.75"></path>
    <path stroke="#088fcb" vector-effect="non-scaling-stroke" d="   M 229.31 97.62   C 211.64 107.06 194.40 116.59 175.24 122.74"></path>
    <path stroke="#1a7ab5" vector-effect="non-scaling-stroke" d="   M 186.69 140.08   L 206.85 130.55"></path>
  </g>
  <path fill="#07945c" d="   M 271.83 48.40   Q 244.61 64.60 216.42 78.73   Q 210.87 71.79 213.23 63.22   C 216.20 52.40 227.12 48.58 237.26 49.81   Q 240.18 50.16 244.39 50.68   A 0.39 0.39 0.0 0 0 244.64 49.97   C 229.95 40.94 213.68 41.60 198.27 48.03   Q 176.87 56.97 167.05 78.79   Q 164.25 85.02 162.67 93.25   A 0.19 0.19 0.0 0 1 162.30 93.23   Q 161.85 87.87 162.41 82.99   C 167.24 40.86 211.88 15.16 250.56 31.17   Q 263.67 36.59 271.83 48.40   Z"></path>
  <path fill="#3fa45b" d="   M 279.90 67.81   Q 273.37 74.75 266.62 78.90   Q 260.04 82.94 242.70 92.75   Q 236.63 87.49 231.95 86.28   C 226.01 84.73 220.90 83.99 216.42 78.73   Q 244.61 64.60 271.83 48.40   Q 278.00 57.48 279.90 67.81   Z"></path>
  <path fill="#0297d3" d="   M 229.31 97.62   C 211.64 107.06 194.40 116.59 175.24 122.74   C 166.07 98.88 175.59 73.49 197.01 60.49   Q 199.62 58.90 202.35 58.09   A 0.37 0.37 0.0 0 1 202.80 58.57   Q 199.25 68.39 202.96 77.80   C 205.81 85.06 212.10 92.28 219.82 94.66   Q 224.55 96.12 229.31 97.62   Z"></path>
  <path fill="#97bc5e" d="   M 242.70 92.75   Q 260.04 82.94 266.62 78.90   Q 273.37 74.75 279.90 67.81   Q 281.98 80.69 278.89 90.85   Q 272.11 113.16 251.08 123.12   A 0.53 0.53 0.0 0 1 250.35 122.50   Q 255.22 105.24 242.70 92.75   Z"></path>
  <path fill="#266ca6" d="   M 186.69 140.08   L 206.85 130.55   Q 215.11 136.55 224.99 137.79   Q 235.98 139.17 247.08 136.08   C 270.36 129.62 285.31 111.68 290.12 88.39   Q 290.18 88.09 290.59 87.90   A 0.30 0.30 0.0 0 1 291.02 88.18   C 290.94 101.82 287.98 114.76 280.54 126.00   Q 268.46 144.22 247.06 151.54   C 226.15 158.69 202.83 155.59 186.69 140.08   Z"></path>
  <path fill="#0e87c3" d="   M 229.31 97.62   C 236.87 100.81 241.11 107.92 239.88 116.06   C 238.60 124.58 232.37 130.16 223.68 131.37   Q 217.05 132.28 212.26 131.22   Q 208.18 130.32 206.85 130.55   L 186.69 140.08   Q 179.39 132.77 175.24 122.74   C 194.40 116.59 211.64 107.06 229.31 97.62   Z"></path>
  <path fill="#266ca6" d="   M 156.22 170.93   C 164.59 170.93 177.38 174.09 177.44 184.84   Q 177.56 210.26 177.46 223.74   A 3.51 3.23 -38.8 0 1 177.31 224.73   Q 175.49 230.80 169.01 229.59   Q 164.26 228.70 163.92 222.76   Q 163.87 222.02 163.85 187.73   C 163.85 183.09 160.49 181.01 156.22 181.01   C 151.94 181.01 148.58 183.08 148.57 187.71   Q 148.50 222.01 148.45 222.75   Q 148.10 228.69 143.35 229.57   Q 136.87 230.77 135.05 224.70   A 3.51 3.23 38.9 0 1 134.91 223.71   Q 134.83 210.23 134.99 184.81   C 135.06 174.06 147.85 170.92 156.22 170.93   Z"></path>
  <path fill="#266ca6" d="   M 209.65 171.05   C 219.53 171.08 231.07 174.28 231.03 186.53   Q 231.02 193.79 230.99 200.71   Q 230.97 207.63 230.95 214.89   C 230.90 227.13 219.34 230.27 209.47 230.23   C 199.60 230.20 188.06 227.00 188.09 214.75   Q 188.11 207.49 188.13 200.57   Q 188.15 193.66 188.18 186.40   C 188.22 174.15 199.78 171.02 209.65 171.05   Z   M 217.16 187.20   A 6.15 6.15 0.0 0 0 211.01 181.05   L 208.15 181.05   A 6.15 6.15 0.0 0 0 202.00 187.20   L 202.00 214.10   A 6.15 6.15 0.0 0 0 208.15 220.25   L 211.01 220.25   A 6.15 6.15 0.0 0 0 217.16 214.10   L 217.16 187.20   Z"></path>
  <path fill="#266ca6" d="   M 99.89 182.83   C 93.64 185.07 94.95 191.53 100.81 193.08   C 112.73 196.24 130.69 198.85 126.55 216.54   C 122.82 232.47 101.71 231.87 90.15 227.13   C 86.33 225.56 82.89 221.77 85.67 217.64   C 87.86 214.37 90.76 214.93 94.12 216.45   C 98.36 218.36 114.20 222.45 115.45 214.26   C 116.02 210.51 112.45 208.05 109.18 207.29   C 98.30 204.76 83.09 202.90 84.03 188.18   Q 84.74 176.90 95.70 172.87   Q 106.61 168.86 119.21 173.96   C 122.92 175.46 125.60 181.31 121.44 183.83   Q 119.07 185.26 116.68 184.53   C 111.30 182.87 105.04 180.99 99.89 182.83   Z"></path>
  <path fill="#266ca6" d="   M 277.08 171.23   C 281.40 171.23 283.93 174.14 283.96 178.52   Q 284.00 185.10 284.02 211.50   C 284.02 214.19 284.67 216.09 287.07 217.35   C 292.34 220.14 299.44 218.20 299.32 211.00   Q 299.01 191.55 299.28 177.35   A 4.30 4.12 -37.1 0 1 299.47 176.17   Q 301.36 170.25 308.16 171.48   C 312.38 172.24 313.06 176.47 313.04 180.66   Q 312.96 192.42 313.00 210.77   C 313.04 228.71 292.29 233.64 279.15 226.61   Q 278.47 226.25 277.13 226.25   Q 275.79 226.25 275.11 226.61   C 261.98 233.67 241.22 228.78 241.23 210.84   Q 241.24 192.49 241.13 180.73   C 241.10 176.54 241.78 172.31 245.99 171.54   Q 252.79 170.30 254.69 176.21   A 4.30 4.12 37.0 0 1 254.89 177.39   Q 255.18 191.59 254.91 211.04   C 254.80 218.24 261.91 220.17 267.17 217.37   C 269.57 216.10 270.22 214.20 270.21 211.51   Q 270.18 185.11 270.21 178.53   C 270.23 174.15 272.75 171.23 277.08 171.23   Z"></path>
  <path fill="#266ca6" d="   M 352.16 190.75   C 353.43 176.49 339.34 181.69 331.93 184.18   C 326.68 185.95 323.22 180.57 326.48 176.39   Q 327.47 175.12 331.19 173.74   Q 343.75 169.11 355.42 172.64   C 365.07 175.55 366.19 182.35 366.09 192.11   Q 365.96 205.66 366.02 214.50   C 366.15 231.34 343.60 231.99 332.32 227.84   C 323.59 224.62 322.71 218.13 323.09 209.51   Q 323.65 196.75 334.70 192.66   C 339.49 190.89 344.46 191.47 351.40 191.45   A 0.77 0.76 -87.5 0 0 352.16 190.75   Z   M 351.51 200.86   C 347.72 200.27 339.40 200.21 337.80 204.57   Q 336.27 208.76 337.13 213.89   C 338.02 219.21 341.58 220.83 346.65 219.88   Q 351.68 218.94 351.97 214.02   Q 352.39 207.00 352.14 201.56   A 0.76 0.75 3.4 0 0 351.51 200.86   Z"></path>
  <rect fill="#266ca6" x="-6.51" y="-30.05" transform="translate(131.73,272.55) rotate(0.1)" width="13.02" height="60.10" rx="6.25"></rect>
  <circle fill="#286ba2" cx="211.31" cy="248.84" r="6.48"></circle>
  <rect fill="#286ba2" x="-6.42" y="-30.02" transform="translate(318.39,272.51) rotate(0.1)" width="12.84" height="60.04" rx="6.05"></rect>
  <path fill="#266ca6" d="   M 175.38 302.39   C 165.93 302.70 156.85 303.39 152.09 293.84   Q 150.34 290.31 150.45 282.19   Q 150.55 275.45 150.49 269.25   C 150.39 259.05 160.40 255.88 168.98 255.48   C 177.49 255.09 190.03 257.61 190.46 268.26   Q 190.67 273.63 190.58 290.74   A 0.99 0.98 -86.7 0 0 191.45 291.72   C 196.70 292.30 204.63 293.00 204.76 285.76   Q 204.82 282.37 204.76 269.07   C 204.74 264.72 205.57 260.66 210.34 260.06   C 214.67 259.52 217.52 262.25 217.67 266.31   Q 217.88 272.01 217.77 282.75   Q 217.73 286.28 219.04 289.49   A 2.20 2.19 6.7 0 0 219.80 290.45   C 224.50 293.80 231.69 291.95 231.89 285.22   Q 232.09 278.99 231.91 264.50   C 231.85 259.77 233.92 254.60 239.73 255.63   C 245.43 256.64 245.07 261.98 245.06 267.35   Q 245.06 273.22 245.08 285.25   C 245.09 290.15 248.39 292.14 252.97 291.95   Q 259.08 291.69 259.20 284.24   Q 259.23 282.31 259.26 262.02   C 259.27 258.14 262.04 255.20 266.16 255.50   C 271.25 255.87 272.31 260.38 272.27 264.76   Q 272.19 274.08 272.23 284.75   C 272.24 287.62 273.01 290.28 275.98 291.35   C 281.32 293.28 286.33 291.19 286.27 285.00   Q 286.24 281.68 286.35 262.60   C 286.40 253.10 299.23 253.28 299.20 262.03   Q 299.15 274.98 299.36 279.18   Q 299.76 287.50 298.33 290.98   C 294.50 300.26 284.62 304.48 275.07 301.98   C 269.77 300.59 264.25 299.66 258.95 301.28   C 252.35 303.30 246.66 303.46 240.83 299.74   A 4.32 4.32 0.0 0 0 236.44 299.59   Q 228.39 303.99 219.34 302.03   C 216.85 301.48 214.52 300.17 212.32 299.34   A 3.31 3.30 40.1 0 0 209.46 299.58   C 203.97 302.82 198.65 302.63 192.36 302.58   C 190.66 302.56 189.45 303.80 188.94 305.50   Q 186.78 312.71 180.01 314.98   Q 178.07 315.64 176.34 314.68   Q 172.20 312.39 174.11 307.93   Q 174.62 306.75 176.19 303.67   A 0.88 0.88 0.0 0 0 175.38 302.39   Z   M 177.83 291.46   Q 177.70 289.66 177.82 276.80   C 177.89 269.09 177.56 263.78 168.64 264.97   Q 163.70 265.63 163.41 271.25   Q 163.00 279.07 163.67 286.10   Q 164.16 291.19 169.31 291.91   Q 173.08 292.44 177.53 291.83   A 0.34 0.34 0.0 0 0 177.83 291.46   Z"></path>
</svg>
